<svg width="91" height="25" viewBox="0 0 91 25" fill="none" xmlns="http://www.w3.org/2000/svg">
<rect width="84" height="25" rx="12.5" fill="#E34D41"/>
<path d="M38.6953 15V7H44.0859V8.39453H40.3867V10.3008H43.8086V11.6953H40.3867V13.6055H44.1016V15H38.6953ZM45.3994 15V9H46.9854V10.0586H47.0557C47.1807 9.70703 47.389 9.42969 47.6807 9.22656C47.9723 9.02344 48.3213 8.92188 48.7275 8.92188C49.139 8.92188 49.4893 9.02474 49.7783 9.23047C50.0674 9.43359 50.2601 9.70964 50.3564 10.0586H50.4189C50.5413 9.71484 50.7627 9.4401 51.083 9.23437C51.4059 9.02604 51.7874 8.92188 52.2275 8.92188C52.7874 8.92188 53.2419 9.10026 53.5908 9.45703C53.9424 9.8112 54.1182 10.3138 54.1182 10.9648V15H52.458V11.293C52.458 10.9596 52.3695 10.7096 52.1924 10.543C52.0153 10.3763 51.7939 10.293 51.5283 10.293C51.2262 10.293 50.9906 10.3893 50.8213 10.582C50.652 10.7721 50.5674 11.0234 50.5674 11.3359V15H48.9541V11.2578C48.9541 10.9635 48.8695 10.7292 48.7002 10.5547C48.5335 10.3802 48.3135 10.293 48.04 10.293C47.8551 10.293 47.6885 10.3398 47.54 10.4336C47.3942 10.5247 47.2783 10.6536 47.1924 10.8203C47.1064 10.9844 47.0635 11.1771 47.0635 11.3984V15H45.3994ZM57.1436 15.1133C56.7607 15.1133 56.4196 15.0469 56.1201 14.9141C55.8206 14.7786 55.5837 14.5794 55.4092 14.3164C55.2373 14.0508 55.1514 13.7201 55.1514 13.3242C55.1514 12.9909 55.2126 12.7109 55.335 12.4844C55.4574 12.2578 55.624 12.0755 55.835 11.9375C56.0459 11.7995 56.2855 11.6953 56.5537 11.625C56.8245 11.5547 57.1084 11.5052 57.4053 11.4766C57.7542 11.4401 58.0355 11.4062 58.249 11.375C58.4626 11.3411 58.6175 11.2917 58.7139 11.2266C58.8102 11.1615 58.8584 11.0651 58.8584 10.9375V10.9141C58.8584 10.6667 58.7803 10.4753 58.624 10.3398C58.4704 10.2044 58.2516 10.1367 57.9678 10.1367C57.6683 10.1367 57.43 10.2031 57.2529 10.3359C57.0758 10.4661 56.9587 10.6302 56.9014 10.8281L55.3623 10.7031C55.4404 10.3385 55.5941 10.0234 55.8232 9.75781C56.0524 9.48958 56.348 9.28385 56.71 9.14062C57.0745 8.99479 57.4964 8.92188 57.9756 8.92188C58.3089 8.92188 58.6279 8.96094 58.9326 9.03906C59.2399 9.11719 59.512 9.23828 59.749 9.40234C59.9886 9.56641 60.1774 9.77734 60.3154 10.0352C60.4535 10.2904 60.5225 10.5964 60.5225 10.9531V15H58.9443V14.168H58.8975C58.8011 14.3555 58.6722 14.5208 58.5107 14.6641C58.3493 14.8047 58.1553 14.9154 57.9287 14.9961C57.7021 15.0742 57.4404 15.1133 57.1436 15.1133ZM57.6201 13.9648C57.8649 13.9648 58.0811 13.9167 58.2686 13.8203C58.4561 13.7214 58.6032 13.5885 58.71 13.4219C58.8167 13.2552 58.8701 13.0664 58.8701 12.8555V12.2188C58.818 12.2526 58.7464 12.2839 58.6553 12.3125C58.5667 12.3385 58.4665 12.3633 58.3545 12.3867C58.2425 12.4076 58.1305 12.4271 58.0186 12.4453C57.9066 12.4609 57.805 12.4753 57.7139 12.4883C57.5186 12.5169 57.348 12.5625 57.2021 12.625C57.0563 12.6875 56.943 12.7721 56.8623 12.8789C56.7816 12.9831 56.7412 13.1133 56.7412 13.2695C56.7412 13.4961 56.8232 13.6693 56.9873 13.7891C57.154 13.9062 57.3649 13.9648 57.6201 13.9648ZM61.8135 15V9H63.4775V15H61.8135ZM62.6494 8.22656C62.402 8.22656 62.1898 8.14453 62.0127 7.98047C61.8382 7.8138 61.751 7.61458 61.751 7.38281C61.751 7.15365 61.8382 6.95703 62.0127 6.79297C62.1898 6.6263 62.402 6.54297 62.6494 6.54297C62.8968 6.54297 63.1077 6.6263 63.2822 6.79297C63.4593 6.95703 63.5479 7.15365 63.5479 7.38281C63.5479 7.61458 63.4593 7.8138 63.2822 7.98047C63.1077 8.14453 62.8968 8.22656 62.6494 8.22656ZM66.4746 7V15H64.8105V7H66.4746Z" fill="white"/>
<path d="M27.9 16H19.1C18.4925 16 18 15.4963 18 14.875V8.07606C18.0256 7.47394 18.5107 6.99943 19.1 7H27.9C28.5075 7 29 7.50368 29 8.125V14.875C29 15.4963 28.5075 16 27.9 16ZM19.1 9.17575V14.875H27.9V9.17575L23.5 12.175L19.1 9.17575ZM19.54 8.125L23.5 10.825L27.46 8.125H19.54Z" fill="white"/>
</svg>
