<svg width="101" height="28" viewBox="0 0 101 28" fill="none" xmlns="http://www.w3.org/2000/svg">
<rect width="101" height="28" rx="14" fill="#7480FF"/>
<path d="M37.6865 18V9.27273H38.7433V17.0625H42.8001V18H37.6865ZM44.3001 18V11.4545H45.3058V18H44.3001ZM44.8115 10.3636C44.6154 10.3636 44.4464 10.2969 44.3044 10.1634C44.1652 10.0298 44.0956 9.86932 44.0956 9.68182C44.0956 9.49432 44.1652 9.33381 44.3044 9.20028C44.4464 9.06676 44.6154 9 44.8115 9C45.0075 9 45.1751 9.06676 45.3143 9.20028C45.4564 9.33381 45.5274 9.49432 45.5274 9.68182C45.5274 9.86932 45.4564 10.0298 45.3143 10.1634C45.1751 10.2969 45.0075 10.3636 44.8115 10.3636ZM48.1534 14.0625V18H47.1478V11.4545H48.1194V12.4773H48.2046C48.358 12.1449 48.5909 11.8778 48.9034 11.6761C49.2159 11.4716 49.6194 11.3693 50.1137 11.3693C50.5569 11.3693 50.9446 11.4602 51.277 11.642C51.6094 11.821 51.8679 12.0938 52.0526 12.4602C52.2373 12.8239 52.3296 13.2841 52.3296 13.8409V18H51.3239V13.9091C51.3239 13.3949 51.1904 12.9943 50.9233 12.7074C50.6563 12.4176 50.2898 12.2727 49.8239 12.2727C49.5029 12.2727 49.2159 12.3423 48.9631 12.4815C48.7131 12.6207 48.5157 12.8239 48.3708 13.0909C48.2259 13.358 48.1534 13.6818 48.1534 14.0625ZM55.1048 15.6136L55.0878 14.3693H55.2923L58.1559 11.4545H59.4003L56.3491 14.5398H56.2639L55.1048 15.6136ZM54.1673 18V9.27273H55.173V18H54.1673ZM58.3264 18L55.7696 14.7614L56.4855 14.0625L59.6048 18H58.3264ZM63.1694 18.1364C62.5387 18.1364 61.9947 17.9972 61.5373 17.7188C61.0828 17.4375 60.7319 17.0455 60.4848 16.5426C60.2404 16.0369 60.1183 15.4489 60.1183 14.7784C60.1183 14.108 60.2404 13.517 60.4848 13.0057C60.7319 12.4915 61.0757 12.0909 61.516 11.804C61.9592 11.5142 62.4762 11.3693 63.0672 11.3693C63.4081 11.3693 63.7447 11.4261 64.0771 11.5398C64.4095 11.6534 64.712 11.8381 64.9848 12.0938C65.2575 12.3466 65.4748 12.6818 65.6368 13.0994C65.7987 13.517 65.8797 14.0312 65.8797 14.642V15.0682H60.8342V14.1989H64.8569C64.8569 13.8295 64.7831 13.5 64.6353 13.2102C64.4904 12.9205 64.2831 12.6918 64.0132 12.5241C63.7461 12.3565 63.4308 12.2727 63.0672 12.2727C62.6666 12.2727 62.32 12.3722 62.0274 12.571C61.7376 12.767 61.5146 13.0227 61.3583 13.3381C61.2021 13.6534 61.124 13.9915 61.124 14.3523V14.9318C61.124 15.4261 61.2092 15.8452 61.3797 16.1889C61.5529 16.5298 61.793 16.7898 62.0998 16.9688C62.4066 17.1449 62.7632 17.233 63.1694 17.233C63.4336 17.233 63.6723 17.196 63.8853 17.1222C64.1012 17.0455 64.2873 16.9318 64.4436 16.7812C64.5998 16.6278 64.7206 16.4375 64.8058 16.2102L65.7774 16.483C65.6751 16.8125 65.5032 17.1023 65.2618 17.3523C65.0203 17.5994 64.722 17.7926 64.3669 17.9318C64.0118 18.0682 63.6126 18.1364 63.1694 18.1364ZM69.8811 18.1364C69.3356 18.1364 68.8541 17.9986 68.4365 17.723C68.0189 17.4446 67.6922 17.0526 67.4564 16.5469C67.2206 16.0384 67.1027 15.4375 67.1027 14.7443C67.1027 14.0568 67.2206 13.4602 67.4564 12.9545C67.6922 12.4489 68.0203 12.0582 68.4407 11.7827C68.8612 11.5071 69.347 11.3693 69.8981 11.3693C70.3243 11.3693 70.6609 11.4403 70.9081 11.5824C71.1581 11.7216 71.3484 11.8807 71.4791 12.0597C71.6126 12.2358 71.7163 12.3807 71.7902 12.4943H71.8754V9.27273H72.8811V18H71.9095V16.9943H71.7902C71.7163 17.1136 71.6112 17.2642 71.4748 17.446C71.3385 17.625 71.1439 17.7855 70.891 17.9276C70.6382 18.0668 70.3015 18.1364 69.8811 18.1364ZM70.0174 17.233C70.4208 17.233 70.7618 17.1278 71.0402 16.9176C71.3186 16.7045 71.5302 16.4105 71.6751 16.0355C71.82 15.6577 71.8924 15.2216 71.8924 14.7273C71.8924 14.2386 71.8214 13.8111 71.6794 13.4446C71.5373 13.0753 71.3271 12.7884 71.0487 12.5838C70.7703 12.3764 70.4265 12.2727 70.0174 12.2727C69.5913 12.2727 69.2362 12.3821 68.9521 12.6009C68.6708 12.8168 68.4592 13.1108 68.3172 13.483C68.1779 13.8523 68.1083 14.267 68.1083 14.7273C68.1083 15.1932 68.1794 15.6165 68.3214 15.9972C68.4663 16.375 68.6794 16.6761 68.9606 16.9006C69.2447 17.1222 69.597 17.233 70.0174 17.233ZM76.0558 9.27273V18H74.999V9.27273H76.0558ZM79.0441 14.0625V18H78.0384V11.4545H79.01V12.4773H79.0952C79.2486 12.1449 79.4816 11.8778 79.7941 11.6761C80.1066 11.4716 80.51 11.3693 81.0043 11.3693C81.4475 11.3693 81.8353 11.4602 82.1677 11.642C82.5 11.821 82.7586 12.0938 82.9432 12.4602C83.1279 12.8239 83.2202 13.2841 83.2202 13.8409V18H82.2145V13.9091C82.2145 13.3949 82.081 12.9943 81.814 12.7074C81.5469 12.4176 81.1804 12.2727 80.7145 12.2727C80.3935 12.2727 80.1066 12.3423 79.8537 12.4815C79.6037 12.6207 79.4063 12.8239 79.2614 13.0909C79.1165 13.358 79.0441 13.6818 79.0441 14.0625Z" fill="white"/>
<path d="M22.6667 18H20V10H22.6667V11.3333C23.2351 10.6102 24.0971 10.179 25.0167 10.158C26.6704 10.1672 28.0048 11.5129 28 13.1667V18H25.3333V13.5C25.2267 12.7551 24.5879 12.2024 23.8353 12.204C23.5062 12.2144 23.1955 12.3585 22.9749 12.6031C22.7544 12.8477 22.6431 13.1715 22.6667 13.5V18ZM18.6667 18H16V10H18.6667V18ZM17.3333 8.66667C16.597 8.66667 16 8.06971 16 7.33333C16 6.59695 16.597 6 17.3333 6C18.0697 6 18.6667 6.59695 18.6667 7.33333C18.6667 7.68695 18.5262 8.02609 18.2761 8.27614C18.0261 8.52619 17.687 8.66667 17.3333 8.66667Z" fill="white"/>
</svg>
