<svg width="95" height="25" viewBox="0 0 95 25" fill="none" xmlns="http://www.w3.org/2000/svg">
<rect width="95" height="25" rx="12.5" fill="#0077B5"/>
<path d="M33.7349 16.3571V8.35715H35.4263V14.9626H38.856V16.3571H33.7349ZM39.9449 16.3571V10.3571H41.6089V16.3571H39.9449ZM40.7808 9.58371C40.5334 9.58371 40.3212 9.50168 40.1441 9.33762C39.9696 9.17095 39.8824 8.97173 39.8824 8.73996C39.8824 8.51079 39.9696 8.31418 40.1441 8.15012C40.3212 7.98345 40.5334 7.90012 40.7808 7.90012C41.0282 7.90012 41.2392 7.98345 41.4136 8.15012C41.5907 8.31418 41.6793 8.51079 41.6793 8.73996C41.6793 8.97173 41.5907 9.17095 41.4136 9.33762C41.2392 9.50168 41.0282 9.58371 40.7808 9.58371ZM44.606 12.8884V16.3571H42.942V10.3571H44.5279V11.4157H44.5982C44.731 11.0668 44.9537 10.7907 45.2662 10.5876C45.5787 10.3819 45.9576 10.279 46.4029 10.279C46.8196 10.279 47.1828 10.3702 47.4927 10.5525C47.8026 10.7348 48.0435 10.9952 48.2154 11.3337C48.3873 11.6696 48.4732 12.0707 48.4732 12.5368V16.3571H46.8091V12.8337C46.8117 12.4665 46.718 12.1801 46.5279 11.9743C46.3378 11.766 46.0761 11.6618 45.7427 11.6618C45.5188 11.6618 45.3209 11.71 45.149 11.8064C44.9797 11.9027 44.8469 12.0433 44.7505 12.2282C44.6568 12.4105 44.6086 12.6306 44.606 12.8884ZM51.2925 14.6306L51.2964 12.6345H51.5386L53.4605 10.3571H55.3707L52.7886 13.3728H52.3941L51.2925 14.6306ZM49.7847 16.3571V8.35715H51.4488V16.3571H49.7847ZM53.5347 16.3571L51.7691 13.7439L52.8785 12.5681L55.4839 16.3571H53.5347ZM58.6744 16.4743C58.0572 16.4743 57.5259 16.3493 57.0806 16.0993C56.6379 15.8467 56.2968 15.49 56.0572 15.029C55.8176 14.5655 55.6978 14.0173 55.6978 13.3845C55.6978 12.7673 55.8176 12.2256 56.0572 11.7595C56.2968 11.2933 56.634 10.9301 57.0689 10.6696C57.5064 10.4092 58.0194 10.279 58.608 10.279C59.0038 10.279 59.3723 10.3428 59.7134 10.4704C60.0572 10.5954 60.3567 10.7842 60.6119 11.0368C60.8697 11.2894 61.0702 11.6071 61.2134 11.99C61.3567 12.3702 61.4283 12.8155 61.4283 13.3259V13.7829H56.3619V12.7517H59.8619C59.8619 12.5121 59.8098 12.2999 59.7056 12.115C59.6015 11.9301 59.4569 11.7855 59.272 11.6814C59.0897 11.5746 58.8775 11.5212 58.6353 11.5212C58.3827 11.5212 58.1588 11.5798 57.9634 11.697C57.7707 11.8116 57.6197 11.9665 57.5103 12.1618C57.4009 12.3545 57.345 12.5694 57.3423 12.8064V13.7868C57.3423 14.0837 57.397 14.3402 57.5064 14.5564C57.6184 14.7725 57.7759 14.9392 57.9791 15.0564C58.1822 15.1736 58.4231 15.2321 58.7017 15.2321C58.8866 15.2321 59.0559 15.2061 59.2095 15.154C59.3632 15.1019 59.4947 15.0238 59.6041 14.9196C59.7134 14.8155 59.7968 14.6879 59.8541 14.5368L61.3931 14.6384C61.315 15.0082 61.1548 15.3311 60.9127 15.6071C60.6731 15.8806 60.3632 16.0941 59.983 16.2478C59.6054 16.3988 59.1692 16.4743 58.6744 16.4743ZM64.7252 16.4548C64.2694 16.4548 63.8567 16.3376 63.4869 16.1032C63.1197 15.8663 62.828 15.5186 62.6119 15.0603C62.3983 14.5993 62.2916 14.0342 62.2916 13.365C62.2916 12.6775 62.4022 12.1058 62.6236 11.6501C62.845 11.1918 63.1392 10.8493 63.5064 10.6228C63.8762 10.3936 64.2811 10.279 64.7213 10.279C65.0572 10.279 65.3371 10.3363 65.5611 10.4509C65.7877 10.5629 65.97 10.7035 66.108 10.8728C66.2486 11.0394 66.3554 11.2035 66.4283 11.365H66.4791V8.35715H68.1392V16.3571H66.4986V15.3962H66.4283C66.3502 15.5629 66.2395 15.7282 66.0963 15.8923C65.9556 16.0538 65.772 16.1879 65.5455 16.2946C65.3215 16.4014 65.0481 16.4548 64.7252 16.4548ZM65.2525 15.1306C65.5207 15.1306 65.7473 15.0577 65.9322 14.9118C66.1197 14.7634 66.2629 14.5564 66.3619 14.2907C66.4634 14.0251 66.5142 13.7139 66.5142 13.3571C66.5142 13.0004 66.4647 12.6905 66.3658 12.4275C66.2668 12.1644 66.1236 11.9613 65.9361 11.8181C65.7486 11.6749 65.5207 11.6032 65.2525 11.6032C64.9791 11.6032 64.7486 11.6775 64.5611 11.8259C64.3736 11.9743 64.2317 12.1801 64.1353 12.4431C64.039 12.7061 63.9908 13.0108 63.9908 13.3571C63.9908 13.7061 64.039 14.0147 64.1353 14.2829C64.2343 14.5486 64.3762 14.7569 64.5611 14.9079C64.7486 15.0564 64.9791 15.1306 65.2525 15.1306ZM71.23 8.35715V16.3571H69.5386V8.35715H71.23ZM74.2545 12.8884V16.3571H72.5904V10.3571H74.1763V11.4157H74.2466C74.3795 11.0668 74.6021 10.7907 74.9146 10.5876C75.2271 10.3819 75.606 10.279 76.0513 10.279C76.468 10.279 76.8313 10.3702 77.1412 10.5525C77.4511 10.7348 77.692 10.9952 77.8638 11.3337C78.0357 11.6696 78.1216 12.0707 78.1216 12.5368V16.3571H76.4576V12.8337C76.4602 12.4665 76.3664 12.1801 76.1763 11.9743C75.9862 11.766 75.7245 11.6618 75.3912 11.6618C75.1672 11.6618 74.9693 11.71 74.7974 11.8064C74.6282 11.9027 74.4953 12.0433 74.399 12.2282C74.3052 12.4105 74.2571 12.6306 74.2545 12.8884Z" fill="white"/>
<path d="M21.5555 16H19.3333V9.33333H21.5555V10.4444C22.0292 9.84181 22.7475 9.48254 23.5139 9.465C24.892 9.47265 26.004 10.5941 26 11.9722V16H23.7778V12.25C23.6889 11.6292 23.1565 11.1687 22.5294 11.17C22.2552 11.1787 21.9962 11.2988 21.8124 11.5026C21.6287 11.7064 21.5359 11.9763 21.5555 12.25V16ZM18.2222 16H16V9.33333H18.2222V16ZM17.1111 8.22222C16.4975 8.22222 16 7.72476 16 7.11111C16 6.49746 16.4975 6 17.1111 6C17.7248 6 18.2222 6.49746 18.2222 7.11111C18.2222 7.40579 18.1052 7.68841 17.8968 7.89678C17.6884 8.10516 17.4058 8.22222 17.1111 8.22222Z" fill="white"/>
</svg>
