<svg width="104" height="28" viewBox="0 0 104 28" fill="none" xmlns="http://www.w3.org/2000/svg">
<rect width="104" height="28" rx="14" fill="#0077B5"/>
<path d="M37.9923 18V9.27273H39.8375V16.4787H43.5789V18H37.9923ZM44.7668 18V11.4545H46.5821V18H44.7668ZM45.6787 10.6108C45.4088 10.6108 45.1773 10.5213 44.9841 10.3423C44.7938 10.1605 44.6986 9.94318 44.6986 9.69034C44.6986 9.44034 44.7938 9.22585 44.9841 9.04688C45.1773 8.86506 45.4088 8.77415 45.6787 8.77415C45.9486 8.77415 46.1787 8.86506 46.3691 9.04688C46.5623 9.22585 46.6588 9.44034 46.6588 9.69034C46.6588 9.94318 46.5623 10.1605 46.3691 10.3423C46.1787 10.5213 45.9486 10.6108 45.6787 10.6108ZM49.8517 14.2159V18H48.0363V11.4545H49.7664V12.6094H49.8431C49.988 12.2287 50.2309 11.9276 50.5718 11.706C50.9127 11.4815 51.3261 11.3693 51.8119 11.3693C52.2664 11.3693 52.6627 11.4688 53.0008 11.6676C53.3389 11.8665 53.6017 12.1506 53.7892 12.5199C53.9767 12.8864 54.0704 13.3239 54.0704 13.8324V18H52.2551V14.1562C52.2579 13.7557 52.1556 13.4432 51.9483 13.2188C51.7409 12.9915 51.4554 12.8778 51.0917 12.8778C50.8474 12.8778 50.6315 12.9304 50.444 13.0355C50.2593 13.1406 50.1145 13.294 50.0093 13.4957C49.9071 13.6946 49.8545 13.9347 49.8517 14.2159ZM57.1461 16.1165L57.1503 13.9389H57.4145L59.5111 11.4545H61.5949L58.7782 14.7443H58.3478L57.1461 16.1165ZM55.5012 18V9.27273H57.3165V18H55.5012ZM59.5921 18L57.6659 15.1491L58.8762 13.8665L61.7185 18H59.5921ZM65.199 18.1278C64.5257 18.1278 63.9461 17.9915 63.4603 17.7188C62.9774 17.4432 62.6052 17.054 62.3439 16.5511C62.0825 16.0455 61.9518 15.4474 61.9518 14.7571C61.9518 14.0838 62.0825 13.4929 62.3439 12.9844C62.6052 12.4759 62.9731 12.0795 63.4476 11.7955C63.9248 11.5114 64.4845 11.3693 65.1265 11.3693C65.5583 11.3693 65.9603 11.4389 66.3325 11.5781C66.7075 11.7145 67.0342 11.9205 67.3126 12.196C67.5939 12.4716 67.8126 12.8182 67.9689 13.2358C68.1251 13.6506 68.2032 14.1364 68.2032 14.6932V15.1918H62.6762V14.0668H66.4944C66.4944 13.8054 66.4376 13.5739 66.324 13.3722C66.2103 13.1705 66.0527 13.0128 65.851 12.8991C65.6521 12.7827 65.4206 12.7244 65.1564 12.7244C64.8808 12.7244 64.6365 12.7884 64.4234 12.9162C64.2132 13.0412 64.0484 13.2102 63.9291 13.4233C63.8098 13.6335 63.7487 13.8679 63.7458 14.1264V15.196C63.7458 15.5199 63.8055 15.7997 63.9248 16.0355C64.047 16.2713 64.2189 16.4531 64.4404 16.581C64.662 16.7088 64.9248 16.7727 65.2288 16.7727C65.4305 16.7727 65.6152 16.7443 65.7828 16.6875C65.9504 16.6307 66.0939 16.5455 66.2132 16.4318C66.3325 16.3182 66.4234 16.179 66.4859 16.0142L68.1649 16.125C68.0797 16.5284 67.9049 16.8807 67.6407 17.1818C67.3794 17.4801 67.0413 17.7131 66.6265 17.8807C66.2146 18.0455 65.7387 18.1278 65.199 18.1278ZM71.7998 18.1065C71.3027 18.1065 70.8524 17.9787 70.449 17.723C70.0484 17.4645 69.7302 17.0852 69.4944 16.5852C69.2615 16.0824 69.145 15.4659 69.145 14.7358C69.145 13.9858 69.2657 13.3622 69.5072 12.8651C69.7487 12.3651 70.0697 11.9915 70.4703 11.7443C70.8737 11.4943 71.3154 11.3693 71.7956 11.3693C72.162 11.3693 72.4674 11.4318 72.7118 11.5568C72.9589 11.679 73.1578 11.8324 73.3083 12.017C73.4618 12.1989 73.5782 12.3778 73.6578 12.554H73.7132V9.27273H75.5243V18H73.7345V16.9517H73.6578C73.5726 17.1335 73.4518 17.3139 73.2956 17.4929C73.1422 17.669 72.9419 17.8153 72.6947 17.9318C72.4504 18.0483 72.1521 18.1065 71.7998 18.1065ZM72.3751 16.6619C72.6677 16.6619 72.9149 16.5824 73.1166 16.4233C73.3211 16.2614 73.4774 16.0355 73.5853 15.7457C73.6961 15.456 73.7515 15.1165 73.7515 14.7273C73.7515 14.3381 73.6976 14 73.5896 13.7131C73.4816 13.4261 73.3254 13.2045 73.1208 13.0483C72.9163 12.892 72.6677 12.8139 72.3751 12.8139C72.0768 12.8139 71.8254 12.8949 71.6208 13.0568C71.4163 13.2187 71.2615 13.4432 71.1564 13.7301C71.0512 14.017 70.9987 14.3494 70.9987 14.7273C70.9987 15.108 71.0512 15.4446 71.1564 15.7372C71.2643 16.027 71.4191 16.2543 71.6208 16.419C71.8254 16.581 72.0768 16.6619 72.3751 16.6619ZM78.8961 9.27273V18H77.0509V9.27273H78.8961ZM82.1954 14.2159V18H80.3801V11.4545H82.1102V12.6094H82.1869C82.3318 12.2287 82.5747 11.9276 82.9156 11.706C83.2565 11.4815 83.6699 11.3693 84.1556 11.3693C84.6102 11.3693 85.0065 11.4688 85.3446 11.6676C85.6826 11.8665 85.9454 12.1506 86.1329 12.5199C86.3204 12.8864 86.4142 13.3239 86.4142 13.8324V18H84.5988V14.1562C84.6017 13.7557 84.4994 13.4432 84.292 13.2188C84.0846 12.9915 83.7991 12.8778 83.4355 12.8778C83.1912 12.8778 82.9752 12.9304 82.7877 13.0355C82.6031 13.1406 82.4582 13.294 82.3531 13.4957C82.2508 13.6946 82.1983 13.9347 82.1954 14.2159Z" fill="white"/>
<path d="M23.3399 18H20.5941V10H23.3399V11.3333C23.9252 10.6102 24.8128 10.179 25.7597 10.158C27.4626 10.1672 28.8366 11.5129 28.8317 13.1667V18H26.0858V13.5C25.976 12.7551 25.3182 12.2024 24.5433 12.204C24.2044 12.2144 23.8844 12.3585 23.6574 12.6031C23.4303 12.8477 23.3156 13.1715 23.3399 13.5V18ZM19.2211 18H16.4753V10H19.2211V18ZM17.8482 8.66667C17.0899 8.66667 16.4753 8.06971 16.4753 7.33333C16.4753 6.59695 17.0899 6 17.8482 6C18.6064 6 19.2211 6.59695 19.2211 7.33333C19.2211 7.68695 19.0765 8.02609 18.819 8.27614C18.5615 8.52619 18.2123 8.66667 17.8482 8.66667Z" fill="white"/>
</svg>
