<svg width="85" height="25" viewBox="0 0 85 25" fill="none" xmlns="http://www.w3.org/2000/svg">
<rect width="85" height="25" rx="12.5" fill="#1C9BEF"/>
<path d="M33.2802 9.75168V8.35715H39.8505V9.75168H37.4013V16.3571H35.7294V9.75168H33.2802ZM41.3974 16.3571L39.7645 10.3571H41.4481L42.3778 14.3884H42.4325L43.4013 10.3571H45.0536L46.038 14.365H46.0888L47.0028 10.3571H48.6825L47.0536 16.3571H45.2919L44.2606 12.5837H44.1864L43.1552 16.3571H41.3974ZM49.5702 16.3571V10.3571H51.2343V16.3571H49.5702ZM50.4061 9.58371C50.1587 9.58371 49.9465 9.50168 49.7694 9.33762C49.5949 9.17095 49.5077 8.97173 49.5077 8.73996C49.5077 8.51079 49.5949 8.31418 49.7694 8.15012C49.9465 7.98345 50.1587 7.90012 50.4061 7.90012C50.6535 7.90012 50.8645 7.98345 51.039 8.15012C51.216 8.31418 51.3046 8.51079 51.3046 8.73996C51.3046 8.97173 51.216 9.17095 51.039 9.33762C50.8645 9.50168 50.6535 9.58371 50.4061 9.58371ZM55.7587 10.3571V11.6071H52.1454V10.3571H55.7587ZM52.9657 8.91965H54.6298V14.5134C54.6298 14.667 54.6532 14.7868 54.7001 14.8728C54.747 14.9561 54.8121 15.0147 54.8954 15.0486C54.9813 15.0824 55.0803 15.0993 55.1923 15.0993C55.2704 15.0993 55.3485 15.0928 55.4267 15.0798C55.5048 15.0642 55.5647 15.0525 55.6063 15.0446L55.8681 16.2829C55.7847 16.309 55.6675 16.3389 55.5165 16.3728C55.3655 16.4092 55.1819 16.4314 54.9657 16.4392C54.5647 16.4548 54.2131 16.4014 53.911 16.279C53.6115 16.1566 53.3785 15.9665 53.2118 15.7087C53.0451 15.4509 52.9631 15.1254 52.9657 14.7321V8.91965ZM60.0341 10.3571V11.6071H56.4208V10.3571H60.0341ZM57.2411 8.91965H58.9052V14.5134C58.9052 14.667 58.9286 14.7868 58.9755 14.8728C59.0224 14.9561 59.0875 15.0147 59.1708 15.0486C59.2567 15.0824 59.3557 15.0993 59.4677 15.0993C59.5458 15.0993 59.6239 15.0928 59.702 15.0798C59.7802 15.0642 59.8401 15.0525 59.8817 15.0446L60.1434 16.2829C60.0601 16.309 59.9429 16.3389 59.7919 16.3728C59.6408 16.4092 59.4573 16.4314 59.2411 16.4392C58.8401 16.4548 58.4885 16.4014 58.1864 16.279C57.8869 16.1566 57.6539 15.9665 57.4872 15.7087C57.3205 15.4509 57.2385 15.1254 57.2411 14.7321V8.91965ZM63.788 16.4743C63.1708 16.4743 62.6395 16.3493 62.1942 16.0993C61.7515 15.8467 61.4104 15.49 61.1708 15.029C60.9312 14.5655 60.8114 14.0173 60.8114 13.3845C60.8114 12.7673 60.9312 12.2256 61.1708 11.7595C61.4104 11.2933 61.7476 10.9301 62.1825 10.6696C62.62 10.4092 63.133 10.279 63.7216 10.279C64.1174 10.279 64.4859 10.3428 64.827 10.4704C65.1708 10.5954 65.4703 10.7842 65.7255 11.0368C65.9833 11.2894 66.1838 11.6071 66.327 11.99C66.4703 12.3702 66.5419 12.8155 66.5419 13.3259V13.7829H61.4755V12.7517H64.9755C64.9755 12.5121 64.9234 12.2999 64.8192 12.115C64.7151 11.9301 64.5705 11.7855 64.3856 11.6814C64.2033 11.5746 63.9911 11.5212 63.7489 11.5212C63.4963 11.5212 63.2724 11.5798 63.077 11.697C62.8843 11.8116 62.7333 11.9665 62.6239 12.1618C62.5145 12.3545 62.4586 12.5694 62.4559 12.8064V13.7868C62.4559 14.0837 62.5106 14.3402 62.62 14.5564C62.732 14.7725 62.8895 14.9392 63.0927 15.0564C63.2958 15.1736 63.5367 15.2321 63.8153 15.2321C64.0002 15.2321 64.1695 15.2061 64.3231 15.154C64.4768 15.1019 64.6083 15.0238 64.7177 14.9196C64.827 14.8155 64.9104 14.6879 64.9677 14.5368L66.5067 14.6384C66.4286 15.0082 66.2684 15.3311 66.0263 15.6071C65.7867 15.8806 65.4768 16.0941 65.0966 16.2478C64.719 16.3988 64.2828 16.4743 63.788 16.4743ZM67.6278 16.3571V10.3571H69.2411V11.404H69.3036C69.413 11.0316 69.5966 10.7504 69.8544 10.5603C70.1122 10.3676 70.4091 10.2712 70.745 10.2712C70.8283 10.2712 70.9182 10.2764 71.0145 10.2868C71.1109 10.2973 71.1955 10.3116 71.2684 10.3298V11.8064C71.1903 11.7829 71.0823 11.7621 70.9442 11.7439C70.8062 11.7256 70.6799 11.7165 70.5653 11.7165C70.3205 11.7165 70.1018 11.7699 69.9091 11.8767C69.719 11.9808 69.5679 12.1267 69.4559 12.3142C69.3466 12.5017 69.2919 12.7178 69.2919 12.9626V16.3571H67.6278Z" fill="white"/>
<path d="M24.5865 8.57679C25.1007 8.26139 25.4855 7.76476 25.669 7.17962C25.1858 7.47377 24.657 7.68098 24.1057 7.79228C23.3414 6.96277 22.1303 6.76089 21.1493 7.29948C20.1683 7.83806 19.6601 8.98375 19.9088 10.0964C17.9294 9.99442 16.0853 9.0352 14.8353 7.45741C14.1829 8.61176 14.5163 10.0874 15.5971 10.8297C15.2063 10.8168 14.8241 10.7082 14.4825 10.5131C14.4825 10.5236 14.4825 10.5342 14.4825 10.5448C14.4827 11.7473 15.3088 12.7831 16.4576 13.0214C16.0951 13.1225 15.7148 13.1374 15.3458 13.0649C15.6689 14.0933 16.5927 14.7977 17.6457 14.8187C16.7736 15.5209 15.6966 15.9018 14.588 15.8999C14.3915 15.9002 14.1952 15.8886 14 15.8651C15.1258 16.6073 16.436 17.0012 17.7742 16.9998C19.6359 17.013 21.425 16.26 22.7414 14.9094C24.0578 13.5588 24.7916 11.7232 24.7787 9.81329C24.7787 9.70382 24.7762 9.59495 24.7712 9.48666C25.2534 9.12918 25.6695 8.68634 26 8.17894C25.5508 8.3832 25.0744 8.5173 24.5865 8.57679Z" fill="white"/>
</svg>
