<svg width="90" height="25" viewBox="0 0 90 25" fill="none" xmlns="http://www.w3.org/2000/svg">
<rect width="90" height="25" rx="12.5" fill="#1C9BEF"/>
<path d="M35.2802 9.75168V8.35715H41.8505V9.75168H39.4013V16.3571H37.7294V9.75168H35.2802ZM43.3974 16.3571L41.7645 10.3571H43.4481L44.3778 14.3884H44.4325L45.4013 10.3571H47.0536L48.038 14.365H48.0888L49.0028 10.3571H50.6825L49.0536 16.3571H47.2919L46.2606 12.5837H46.1864L45.1552 16.3571H43.3974ZM51.5702 16.3571V10.3571H53.2343V16.3571H51.5702ZM52.4061 9.58371C52.1587 9.58371 51.9465 9.50168 51.7694 9.33762C51.5949 9.17095 51.5077 8.97173 51.5077 8.73996C51.5077 8.51079 51.5949 8.31418 51.7694 8.15012C51.9465 7.98345 52.1587 7.90012 52.4061 7.90012C52.6535 7.90012 52.8645 7.98345 53.039 8.15012C53.216 8.31418 53.3046 8.51079 53.3046 8.73996C53.3046 8.97173 53.216 9.17095 53.039 9.33762C52.8645 9.50168 52.6535 9.58371 52.4061 9.58371ZM57.7587 10.3571V11.6071H54.1454V10.3571H57.7587ZM54.9657 8.91965H56.6298V14.5134C56.6298 14.667 56.6532 14.7868 56.7001 14.8728C56.747 14.9561 56.8121 15.0147 56.8954 15.0486C56.9813 15.0824 57.0803 15.0993 57.1923 15.0993C57.2704 15.0993 57.3485 15.0928 57.4267 15.0798C57.5048 15.0642 57.5647 15.0525 57.6063 15.0446L57.8681 16.2829C57.7847 16.309 57.6675 16.3389 57.5165 16.3728C57.3655 16.4092 57.1819 16.4314 56.9657 16.4392C56.5647 16.4548 56.2131 16.4014 55.911 16.279C55.6115 16.1566 55.3785 15.9665 55.2118 15.7087C55.0451 15.4509 54.9631 15.1254 54.9657 14.7321V8.91965ZM62.0341 10.3571V11.6071H58.4208V10.3571H62.0341ZM59.2411 8.91965H60.9052V14.5134C60.9052 14.667 60.9286 14.7868 60.9755 14.8728C61.0224 14.9561 61.0875 15.0147 61.1708 15.0486C61.2567 15.0824 61.3557 15.0993 61.4677 15.0993C61.5458 15.0993 61.6239 15.0928 61.702 15.0798C61.7802 15.0642 61.8401 15.0525 61.8817 15.0446L62.1434 16.2829C62.0601 16.309 61.9429 16.3389 61.7919 16.3728C61.6408 16.4092 61.4573 16.4314 61.2411 16.4392C60.8401 16.4548 60.4885 16.4014 60.1864 16.279C59.8869 16.1566 59.6539 15.9665 59.4872 15.7087C59.3205 15.4509 59.2385 15.1254 59.2411 14.7321V8.91965ZM65.788 16.4743C65.1708 16.4743 64.6395 16.3493 64.1942 16.0993C63.7515 15.8467 63.4104 15.49 63.1708 15.029C62.9312 14.5655 62.8114 14.0173 62.8114 13.3845C62.8114 12.7673 62.9312 12.2256 63.1708 11.7595C63.4104 11.2933 63.7476 10.9301 64.1825 10.6696C64.62 10.4092 65.133 10.279 65.7216 10.279C66.1174 10.279 66.4859 10.3428 66.827 10.4704C67.1708 10.5954 67.4703 10.7842 67.7255 11.0368C67.9833 11.2894 68.1838 11.6071 68.327 11.99C68.4703 12.3702 68.5419 12.8155 68.5419 13.3259V13.7829H63.4755V12.7517H66.9755C66.9755 12.5121 66.9234 12.2999 66.8192 12.115C66.7151 11.9301 66.5705 11.7855 66.3856 11.6814C66.2033 11.5746 65.9911 11.5212 65.7489 11.5212C65.4963 11.5212 65.2724 11.5798 65.077 11.697C64.8843 11.8116 64.7333 11.9665 64.6239 12.1618C64.5145 12.3545 64.4586 12.5694 64.4559 12.8064V13.7868C64.4559 14.0837 64.5106 14.3402 64.62 14.5564C64.732 14.7725 64.8895 14.9392 65.0927 15.0564C65.2958 15.1736 65.5367 15.2321 65.8153 15.2321C66.0002 15.2321 66.1695 15.2061 66.3231 15.154C66.4768 15.1019 66.6083 15.0238 66.7177 14.9196C66.827 14.8155 66.9104 14.6879 66.9677 14.5368L68.5067 14.6384C68.4286 15.0082 68.2684 15.3311 68.0263 15.6071C67.7867 15.8806 67.4768 16.0941 67.0966 16.2478C66.719 16.3988 66.2828 16.4743 65.788 16.4743ZM69.6278 16.3571V10.3571H71.2411V11.404H71.3036C71.413 11.0316 71.5966 10.7504 71.8544 10.5603C72.1122 10.3676 72.4091 10.2712 72.745 10.2712C72.8283 10.2712 72.9182 10.2764 73.0145 10.2868C73.1109 10.2973 73.1955 10.3116 73.2684 10.3298V11.8064C73.1903 11.7829 73.0823 11.7621 72.9442 11.7439C72.8062 11.7256 72.6799 11.7165 72.5653 11.7165C72.3205 11.7165 72.1018 11.7699 71.9091 11.8767C71.719 11.9808 71.5679 12.1267 71.4559 12.3142C71.3466 12.5017 71.2919 12.7178 71.2919 12.9626V16.3571H69.6278Z" fill="white"/>
<path d="M26.5865 8.57679C27.1007 8.26139 27.4855 7.76476 27.669 7.17962C27.1858 7.47377 26.657 7.68098 26.1057 7.79228C25.3414 6.96277 24.1303 6.76089 23.1493 7.29948C22.1683 7.83806 21.6601 8.98375 21.9088 10.0964C19.9294 9.99442 18.0853 9.0352 16.8353 7.45741C16.1829 8.61176 16.5163 10.0874 17.5971 10.8297C17.2063 10.8168 16.8241 10.7082 16.4825 10.5131C16.4825 10.5236 16.4825 10.5342 16.4825 10.5448C16.4827 11.7473 17.3088 12.7831 18.4576 13.0214C18.0951 13.1225 17.7148 13.1374 17.3458 13.0649C17.6689 14.0933 18.5927 14.7977 19.6457 14.8187C18.7736 15.5209 17.6966 15.9018 16.588 15.8999C16.3915 15.9002 16.1952 15.8886 16 15.8651C17.1258 16.6073 18.436 17.0012 19.7742 16.9998C21.6359 17.013 23.425 16.26 24.7414 14.9094C26.0578 13.5588 26.7916 11.7232 26.7787 9.81329C26.7787 9.70382 26.7762 9.59495 26.7712 9.48666C27.2534 9.12918 27.6695 8.68634 28 8.17894C27.5508 8.3832 27.0744 8.5173 26.5865 8.57679Z" fill="white"/>
</svg>
