<svg width="97" height="28" viewBox="0 0 97 28" fill="none" xmlns="http://www.w3.org/2000/svg">
<rect width="97" height="28" rx="14" fill="#1C9BEF"/>
<path d="M38.5623 10.794V9.27273H45.7299V10.794H43.058V18H41.2341V10.794H38.5623ZM47.4174 18L45.6361 11.4545H47.4728L48.487 15.8523H48.5466L49.6035 11.4545H51.406L52.4799 15.8267H52.5353L53.5324 11.4545H55.3648L53.5878 18H51.666L50.541 13.8835H50.46L49.335 18H47.4174ZM56.3332 18V11.4545H58.1486V18H56.3332ZM57.2451 10.6108C56.9753 10.6108 56.7437 10.5213 56.5505 10.3423C56.3602 10.1605 56.265 9.94318 56.265 9.69034C56.265 9.44034 56.3602 9.22585 56.5505 9.04688C56.7437 8.86506 56.9753 8.77415 57.2451 8.77415C57.515 8.77415 57.7451 8.86506 57.9355 9.04688C58.1287 9.22585 58.2253 9.44034 58.2253 9.69034C58.2253 9.94318 58.1287 10.1605 57.9355 10.3423C57.7451 10.5213 57.515 10.6108 57.2451 10.6108ZM63.0843 11.4545V12.8182H59.1425V11.4545H63.0843ZM60.0374 9.88636H61.8527V15.9886C61.8527 16.1562 61.8783 16.2869 61.9294 16.3807C61.9806 16.4716 62.0516 16.5355 62.1425 16.5724C62.2363 16.6094 62.3442 16.6278 62.4664 16.6278C62.5516 16.6278 62.6368 16.6207 62.7221 16.6065C62.8073 16.5895 62.8726 16.5767 62.9181 16.5682L63.2036 17.919C63.1127 17.9474 62.9848 17.9801 62.8201 18.017C62.6553 18.0568 62.455 18.081 62.2192 18.0895C61.7817 18.1065 61.3982 18.0483 61.0687 17.9148C60.7419 17.7812 60.4877 17.5739 60.3059 17.2926C60.124 17.0114 60.0346 16.6562 60.0374 16.2273V9.88636ZM67.7483 11.4545V12.8182H63.8066V11.4545H67.7483ZM64.7015 9.88636H66.5168V15.9886C66.5168 16.1562 66.5424 16.2869 66.5935 16.3807C66.6446 16.4716 66.7157 16.5355 66.8066 16.5724C66.9003 16.6094 67.0083 16.6278 67.1304 16.6278C67.2157 16.6278 67.3009 16.6207 67.3861 16.6065C67.4714 16.5895 67.5367 16.5767 67.5821 16.5682L67.8677 17.919C67.7767 17.9474 67.6489 17.9801 67.4841 18.017C67.3194 18.0568 67.1191 18.081 66.8833 18.0895C66.4458 18.1065 66.0623 18.0483 65.7327 17.9148C65.406 17.7812 65.1517 17.5739 64.9699 17.2926C64.7881 17.0114 64.6986 16.6562 64.7015 16.2273V9.88636ZM71.8435 18.1278C71.1702 18.1278 70.5907 17.9915 70.1049 17.7188C69.6219 17.4432 69.2498 17.054 68.9884 16.5511C68.727 16.0455 68.5964 15.4474 68.5964 14.7571C68.5964 14.0838 68.727 13.4929 68.9884 12.9844C69.2498 12.4759 69.6177 12.0795 70.0921 11.7955C70.5694 11.5114 71.129 11.3693 71.7711 11.3693C72.2029 11.3693 72.6049 11.4389 72.977 11.5781C73.352 11.7145 73.6787 11.9205 73.9571 12.196C74.2384 12.4716 74.4571 12.8182 74.6134 13.2358C74.7696 13.6506 74.8478 14.1364 74.8478 14.6932V15.1918H69.3208V14.0668H73.139C73.139 13.8054 73.0821 13.5739 72.9685 13.3722C72.8549 13.1705 72.6972 13.0128 72.4955 12.8991C72.2966 12.7827 72.0651 12.7244 71.8009 12.7244C71.5253 12.7244 71.281 12.7884 71.0679 12.9162C70.8577 13.0412 70.6929 13.2102 70.5736 13.4233C70.4543 13.6335 70.3932 13.8679 70.3904 14.1264V15.196C70.3904 15.5199 70.45 15.7997 70.5694 16.0355C70.6915 16.2713 70.8634 16.4531 71.085 16.581C71.3066 16.7088 71.5694 16.7727 71.8733 16.7727C72.075 16.7727 72.2597 16.7443 72.4273 16.6875C72.5949 16.6307 72.7384 16.5455 72.8577 16.4318C72.977 16.3182 73.0679 16.179 73.1304 16.0142L74.8094 16.125C74.7242 16.5284 74.5495 16.8807 74.2853 17.1818C74.0239 17.4801 73.6858 17.7131 73.2711 17.8807C72.8591 18.0455 72.3833 18.1278 71.8435 18.1278ZM76.0324 18V11.4545H77.7924V12.5966H77.8606C77.9799 12.1903 78.1802 11.8835 78.4614 11.6761C78.7427 11.4659 79.0665 11.3608 79.433 11.3608C79.5239 11.3608 79.6219 11.3665 79.727 11.3778C79.8321 11.3892 79.9245 11.4048 80.004 11.4247V13.0355C79.9188 13.0099 79.8009 12.9872 79.6503 12.9673C79.4998 12.9474 79.362 12.9375 79.237 12.9375C78.9699 12.9375 78.7313 12.9957 78.5211 13.1122C78.3137 13.2259 78.1489 13.3849 78.0267 13.5895C77.9074 13.794 77.8478 14.0298 77.8478 14.2969V18H76.0324Z" fill="white"/>
<path d="M27.4687 9.73447C28.0258 9.38753 28.4427 8.84124 28.6414 8.19758C28.1179 8.52114 27.5451 8.74908 26.9479 8.87151C26.1198 7.95904 24.8078 7.73698 23.7451 8.32942C22.6823 8.92186 22.1318 10.1821 22.4012 11.406C20.2569 11.2939 18.259 10.2387 16.9049 8.50315C16.1982 9.77294 16.5593 11.3962 17.7302 12.2127C17.3068 12.1985 16.8928 12.079 16.5227 11.8644C16.5227 11.876 16.5227 11.8877 16.5227 11.8993C16.5229 13.222 17.4178 14.3614 18.6624 14.6235C18.2697 14.7348 17.8577 14.7512 17.458 14.6714C17.808 15.8026 18.8088 16.5775 19.9495 16.6006C19.0047 17.373 17.838 17.7919 16.637 17.7899C16.4241 17.7902 16.2114 17.7774 16 17.7517C17.2196 18.568 18.639 19.0013 20.0887 18.9998C22.1055 19.0143 24.0437 18.186 25.4698 16.7003C26.8959 15.2146 27.6909 13.1955 27.6769 11.0946C27.6769 10.9742 27.6742 10.8544 27.6688 10.7353C28.1912 10.3421 28.6419 9.85498 29 9.29684C28.5134 9.52152 27.9973 9.66903 27.4687 9.73447Z" fill="white"/>
</svg>
